<?xml version="1.0" encoding="UTF-8"?>
<!-- Generator: Adobe Illustrator 28.0.0, SVG Export Plug-In . SVG Version: 6.00 Build 0)  -->
<svg version="1.1" id="Calque_1" xmlns="http://www.w3.org/2000/svg" xmlns:xlink="http://www.w3.org/1999/xlink" x="0px" y="0px" viewBox="0 0 552.8 198.4" style="enable-background:new 0 0 552.8 198.4;" xml:space="preserve">
<style type="text/css">
	.st0{fill:#221F20;}
	.st1{clip-path:url(#SVGID_00000143615848762928482020000009564604408963033254_);fill:#34C5CE;}
</style>
<g>
	<ellipse class="st0" cx="446.3" cy="68.5" rx="9" ry="8.8"/>
	<path class="st0" d="M426.9,118.8h-9.5l0,0c-3.7,0-7.9-1.8-7.9-8.1V63.2c0-1.1-0.9-2-2-2h-16.8c-1.1,0-2,0.9-2,2v10.4   c0,1.1,0.9,2,2,2h1.8c1.1,0,2,0.9,2,2v34.1c0,14.2,7.4,23.8,21.4,23.8h11.1c1.1,0,2-0.9,2-2v-12.8   C428.9,119.7,428,118.8,426.9,118.8z"/>
	<path class="st0" d="M263.5,62.6h-33.4c0,0,0,0,0,0h-10.8c-1.5,0-2.7,1.2-2.7,2.7V133c0,1.5,1.2,2.7,2.7,2.7h8.2h2.6h33.4   c1.5,0,2.7-1.2,2.7-2.7v-9.2c0-1.5-1.2-2.7-2.7-2.7h-30.7v-14.2h17.5c1.5,0,2.7-1.2,2.7-2.7V95c0-1.5-1.2-2.7-2.7-2.7h-17.5V77.1   h30.7c1.5,0,2.7-1.2,2.7-2.7v-9.2C266.2,63.8,265,62.6,263.5,62.6z"/>
	<path class="st0" d="M323.8,81.9H313c-1.1,0-2.1,0.7-2.5,1.8l-11.1,32l-11.1-32c-0.4-1.1-1.4-1.8-2.5-1.8h-12   c-1.9,0-3.2,1.9-2.5,3.7l19,48.4h0c0.4,1,1.4,1.7,2.5,1.7h12.1c1.1,0,2.1-0.7,2.5-1.7l18.9-48.4C326.9,83.8,325.7,81.9,323.8,81.9z   "/>
	<path class="st0" d="M370.7,85.3c-4.2-2.3-8.9-3.5-14.1-3.5s-9.9,1.2-14,3.6c-4.1,2.4-7.4,5.6-9.9,9.6c-2.4,4-3.6,8.5-3.6,13.6   s1.2,9.7,3.6,13.8c2.4,4.1,5.7,7.3,9.9,9.7c4.2,2.4,8.8,3.6,14,3.6v0c5.3,0,10-1.2,14.2-3.6s7.5-5.6,9.9-9.8   c2.4-4.1,3.6-8.7,3.6-13.8s-1.2-9.6-3.7-13.7C378.2,90.9,374.9,87.7,370.7,85.3z M368.2,115.8c-1.1,2.1-2.7,3.7-4.7,4.9   c-2,1.2-4.3,1.8-7,1.8h0c-2.6,0-4.8-0.6-6.8-1.8c-2-1.2-3.5-2.9-4.6-4.9c-1.1-2.1-1.7-4.4-1.7-7.1c0-2.7,0.5-5.1,1.7-7.1   c1.1-2.1,2.7-3.7,4.6-4.9c2-1.2,4.2-1.8,6.8-1.8s4.9,0.6,6.9,1.8c2,1.2,3.5,2.8,4.7,4.9c1.2,2.1,1.8,4.4,1.8,7.1   C369.9,111.4,369.4,113.7,368.2,115.8z"/>
	<path class="st0" d="M517.3,83.1h-8.8c-1.5,0-2.7,1.2-2.7,2.7V88c-1.4-1.5-3.1-2.8-5-3.7c-2.9-1.5-6.2-2.2-9.8-2.2   c-4.8,0-9,1.2-12.7,3.5c-3.7,2.3-6.7,5.5-8.8,9.6c-2.1,4.1-3.2,8.7-3.2,13.8s1.1,9.6,3.2,13.7c2.1,4.1,5.1,7.2,8.8,9.6   c3.7,2.3,8,3.5,12.6,3.5l0,0c3.7,0,7-0.8,10-2.2c1.9-1,3.6-2.2,5-3.6v2.2v0c0,1.5,1.2,2.7,2.7,2.7h8.8c1.5,0,2.7-1.2,2.7-2.7V85.7   C520,84.3,518.8,83.1,517.3,83.1z M503.2,118.8c-2.4,2.6-5.6,4-9.5,4v0c-2.5,0-4.7-0.6-6.7-1.8c-2-1.2-3.5-2.8-4.6-4.9   c-1.1-2.1-1.7-4.6-1.7-7.2c0-2.7,0.5-5.1,1.7-7.1c1.1-2.1,2.6-3.7,4.6-4.9c2-1.2,4.2-1.8,6.8-1.8s4.9,0.6,6.8,1.8   c1.9,1.2,3.4,2.8,4.6,5s1.7,4.5,1.7,7.2C506.8,112.8,505.6,116.2,503.2,118.8z"/>
	<path class="st0" d="M453.7,82.6H436c-1.1,0-2,0.9-2,2v10.2c0,1.1,0.9,2,2,2h1.9c1.1,0,2,0.9,2,2h0h0.1v34.8c0,1.1,0.9,2,2,2h11.7   c1.1,0,2-0.9,2-2v-49C455.8,83.5,454.9,82.6,453.7,82.6z"/>
</g>
<g>
	<defs>
		<rect id="SVGID_1_" x="32.8" y="18.4" width="158.5" height="158.5"/>
	</defs>
	<clipPath id="SVGID_00000057859003325999642130000010830988799817662900_">
		<use xlink:href="#SVGID_1_" style="overflow:visible;"/>
	</clipPath>
	<path style="clip-path:url(#SVGID_00000057859003325999642130000010830988799817662900_);fill:#34C5CE;" d="M111.6,18.4L111.6,18.4   c-43.8,0.2-78.8,36.5-78.8,80.2v70.1c0,4.5,3.7,8.2,8.2,8.2H112c43.8,0,79.3-35.4,79.3-79.3C191.3,53.7,155.6,18.2,111.6,18.4z    M144.3,150.3c0.4-2.7,0.6-4.7,0.8-5.4c0.4-3.1,1.4-5.4,1.7-6.6c0.4-1.6,2.5-4.6,3.7-7.5c1-2.7,1.2-7.9,1.5-9.5   c0.6-2.7,1.6-5.8,1.7-6.4c1.4-4.5,1.9-8.7,2.7-13.1c0.6-3.1-2.7-4.5-3.5-1.7c-0.8,2.7-2.9,9.3-4.1,11.6c0,0.4-0.4,0.6-0.8,0.4   c-0.4-0.2-0.8-0.6-0.6-0.8c0,0,2.3-16.2,2.3-17.4c0.6-3.5-3.5-4.2-4.1-1.5c-0.4,1.7-3.3,16.4-3.7,17.6c0,0.4-0.6,0.8-0.8,0.6   c-0.4,0-0.8-0.6-0.6-0.8c0,0,1.5-18,1.7-18.9c0.4-3.5-3.9-3.7-4.5-0.8c-0.2,1.5-2.7,18.9-2.7,18.9c0,0.4-0.6,0.8-0.8,0.6   s-0.6-0.2-0.6-0.6c0,0,0-14.1-0.2-15.1c-0.6-3.5-4.6-2.3-4.5,0.4c0.2,1.4-0.2,19.1-0.2,19.7c0.2,1.1,0,2.1,0,2.9   c-0.4,1.4-1.7,2.3-3.1,1.9c-0.4,0-0.8-0.2-1.2-0.4c-1.5-1-2.9-2.9-3.7-4.6c-1.4-2.3-3.1-4.5-5.8-5c-1.2-0.2-2.3,0-2.9,1.2   c-0.6,1.1,0.8,1.7,1.5,2.7c1,1,1.4,2.1,1.9,3.3c0.8,1.9,2.3,4.8,3.1,6.6c1.7,4.6,5.6,8.5,5.6,8.5c0.6,0.8,1.7,1.7,2.9,2.7   c1.2,1,1.9,2.3,1.9,4.1c0,0-2.1,14-3.5,20.1c-4.6,1.1-9.5,1.7-14.4,1.7c-3.6,0-7.2-0.3-10.7-0.9c-1.9-14.6-3.8-33.5-3.2-40.1   c0-1.9,1.1-3.7,2.5-4.6c1.4-1,2.7-1.9,3.7-2.9c0,0,4.8-4.1,7.3-9.5c1-2.1,2.9-5.4,4.1-7.5c0.8-1.4,1.4-2.7,2.7-3.7   c1-1,2.5-1.5,1.9-3.1c-0.6-1.4-1.9-1.7-3.3-1.5c-3.1,0.4-5.4,2.9-7.2,5.4c-1.2,1.9-2.9,4.1-4.8,5c-0.4,0.2-1,0.2-1.4,0.4   c-1.7,0.2-3.3-1.1-3.5-2.7c0-1-0.2-1.9,0.2-3.3c0.2-0.8,4.8-22,5.2-23.6c0.4-3.3-4.2-5-5.2-1c-0.4,1.2-5.2,18-5.2,18   c-0.2,0.4-0.4,0.8-0.8,0.8c-0.4,0-1-0.4-1-0.8c0,0-0.8-20.7-1-22.4c-0.4-3.3-5.4-3.7-5.2,0.6c0,1.2-0.2,22.6-0.2,22.6   c0,0.4-0.4,1-0.8,1s-1-0.4-1-0.8c-0.4-1.4-3.5-19.3-4.1-20.9c-1-3.3-5.6-2.7-5,1.5c0,1.1,2.7,20.5,2.7,20.5c0,0.4-0.4,1-0.8,1   c-0.4,0-1-0.2-1-0.6c-1.5-2.7-3.7-11.2-5-13.9c-1.5-3.5-5.4-2.1-4.2,1.7c1.6,5.2,2.1,10.4,3.3,15.6c0,0.6,1,4.4,1.5,7.7   c0.4,1.7,0.2,8.1,1,11.4c1,3.5,3.3,7.3,3.5,9.1c0.4,1.6,1.2,4.2,1.6,7.9c0.1,1.7,1,13.1,2,25.2c-18.4-10.7-30.7-30.6-30.7-53.5   c0-34.2,27.7-61.9,61.9-61.9c34.2,0,61.9,27.7,61.9,61.9C173.6,120,161.9,139.4,144.3,150.3z"/>
</g>
</svg>