<svg id="Layer_1" data-name="Layer 1" xmlns="http://www.w3.org/2000/svg" viewBox="0 0 529.87 88.41"><defs><style>.cls-1{fill:#929497;}.cls-2{fill:#00adee;}</style></defs><path class="cls-1" d="M66.9,88.05,70,70.52h5.5c4.23-.07,8.81.78,8.08,5s-5.63,5-9.83,5H70.22l-1.35,7.62ZM70.47,79h4.8c2.94,0,5.69-.75,6.17-3.5S79.45,72,76.5,72H71.71Z" transform="translate(0 0)"/><path class="cls-1" d="M85.28,88.05,97.05,70.52h2.31L105,88.05h-2.15l-1.51-4.74H90.46l-3.14,4.74Zm15.63-6.19-3-9.88-6.57,9.88Z" transform="translate(0 0)"/><path class="cls-1" d="M115.22,88.05h-2l3.09-17.53h7.16a9.85,9.85,0,0,1,5,.93,3.12,3.12,0,0,1,1.6,3.66c-.33,1.89-2.24,3.25-4.88,3.77v0c2.73.37,3.07,1.87,3,3.91-.1,2.84-.46,4.15.24,5.22h-2.28a11.07,11.07,0,0,1-.12-3.64c.25-4,.07-4.71-3.9-4.71h-5.44Zm6-9.81c2.8,0,6.28-.14,6.81-3.13.59-3.38-3.4-3.13-5.49-3.13h-4.43L117,78.24Z" transform="translate(0 0)"/><path class="cls-1" d="M145,72H137.9l.26-1.46h16L153.92,72H147l-2.86,16.07h-1.94Z" transform="translate(0 0)"/><path class="cls-1" d="M162.27,70.52h2.24l9.37,15.41h.06l2.71-15.41h2l-3.09,17.53h-2.49L163.88,72.9h-.06l-2.67,15.15h-2Z" transform="translate(0 0)"/><path class="cls-1" d="M186.27,88.05l3.09-17.53h13L202.12,72H191.07L190,78.27h10.63l-.26,1.45H189.71l-1.21,6.87H200l-.26,1.46Z" transform="translate(0 0)"/><path class="cls-1" d="M211.69,88.05h-2l3.09-17.53H220a9.83,9.83,0,0,1,5,.93,3.12,3.12,0,0,1,1.6,3.66c-.33,1.89-2.24,3.25-4.88,3.77v0c2.73.37,3.07,1.87,3,3.91-.1,2.84-.45,4.15.24,5.22h-2.28a11.07,11.07,0,0,1-.12-3.64c.26-4,.08-4.71-3.9-4.71h-5.43Zm5.94-9.81c2.8,0,6.28-.14,6.81-3.13C225,71.73,221,72,219,72h-4.43l-1.1,6.26Z" transform="translate(0 0)"/><path class="cls-1" d="M239.32,88.41c-3.49,0-6.07-2-5.65-4.93h2.12c-.41,2.7,1.94,3.47,4.88,3.47,2.46,0,5.48-1.13,5.88-3.37.3-1.74-1.13-2.57-2.89-3.06-3.39-1-8.63-1.84-8-5.63.54-3,4.35-4.73,7.81-4.73,2.89,0,6.51.8,6.4,4.17h-2.13c.32-2.16-2-2.71-4.28-2.71s-5.26.91-5.64,3.06c-.88,5,11.9,2.71,10.84,8.76C248,87.25,243.72,88.41,239.32,88.41Z" transform="translate(0 0)"/><path class="cls-1" d="M271.57,88.05l1.91-10.85h-3.06l.23-1.34h3.07l.45-2.59c.37-2.09,1.6-3,4.21-3a8.93,8.93,0,0,1,1.68.27l-.2,1.17a8.18,8.18,0,0,0-1.11-.1c-2.49,0-2.72,1-2.94,2.74l-.27,1.55H279l-.23,1.34H275.3l-1.91,10.85Z" transform="translate(0 0)"/><path class="cls-1" d="M298.83,82a8,8,0,0,1-8.24,6.45c-4.85,0-6.53-3.25-6-6.45a8,8,0,0,1,8.25-6.46C297.72,75.5,299.4,78.75,298.83,82Zm-6.19-5.13a6.12,6.12,0,0,0-6,5.13c-.4,2.25.55,5.12,4.22,5.12a6.11,6.11,0,0,0,6-5.12C297.26,79.7,296.31,76.83,292.64,76.83Z" transform="translate(0 0)"/><path class="cls-1" d="M308.22,88.05h-1.83l1.67-9.45a24,24,0,0,0,.33-2.74h1.88l-.22,1.8h.06a4.78,4.78,0,0,1,3.81-2.16c.61,0,1.21,0,1.81,0l-.24,1.4c-.37,0-.74-.1-1.11-.1a4.64,4.64,0,0,0-4.88,3.89Z" transform="translate(0 0)"/><path class="cls-1" d="M331.79,88.05l11.76-17.53h2.31l5.65,17.53h-2.16l-1.5-4.74H337l-3.15,4.74Zm15.62-6.19-3-9.88-6.57,9.88Z" transform="translate(0 0)"/><path class="cls-1" d="M373.78,74.63c0-2.14-2.15-3-4.63-3-5.62,0-8,4.07-8.67,7.67s.34,7.66,6,7.66c2.43,0,5-1,6-3.15h2.12c-1.15,2.94-4.81,4.61-8.33,4.61-6.65,0-8.69-4.27-7.83-9.12s4.43-9.13,11-9.13c3.58,0,6.76,1.31,6.5,4.47Z" transform="translate(0 0)"/><path class="cls-1" d="M398.89,74.63c0-2.14-2.14-3-4.63-3-5.61,0-8,4.07-8.66,7.67s.34,7.66,5.95,7.66c2.44,0,5-1,6-3.15h2.13c-1.16,2.94-4.82,4.61-8.34,4.61-6.65,0-8.68-4.27-7.83-9.12a10.63,10.63,0,0,1,11-9.13c3.58,0,6.75,1.31,6.49,4.47Z" transform="translate(0 0)"/><path class="cls-1" d="M413.2,70.52l-2,11.34C410.79,85,412.73,87,416.34,87s6.22-1.91,6.93-5.09l2-11.34h2l-2,11.36c-.72,3.77-3.84,6.53-9.16,6.53s-7.46-2.76-6.86-6.53l2-11.36Z" transform="translate(0 0)"/><path class="cls-1" d="M437.07,88.05h-2l3.09-17.53h7.16a9.83,9.83,0,0,1,5,.93,3.1,3.1,0,0,1,1.6,3.66c-.33,1.89-2.23,3.25-4.88,3.77v0c2.74.37,3.07,1.87,3,3.91-.11,2.84-.46,4.15.23,5.22H448a10.55,10.55,0,0,1-.12-3.64c.24-4,.07-4.71-3.91-4.71h-5.43ZM443,78.24c2.79,0,6.27-.14,6.8-3.13.6-3.38-3.39-3.13-5.49-3.13H439.9l-1.1,6.26Z" transform="translate(0 0)"/><path class="cls-1" d="M457.36,88.05l11.77-17.53h2.31l5.65,17.53h-2.16l-1.5-4.74h-10.9l-3.13,4.74ZM473,81.86,470,72l-6.57,9.88Z" transform="translate(0 0)"/><path class="cls-1" d="M499.35,74.63c0-2.14-2.14-3-4.63-3-5.62,0-8,4.07-8.67,7.67S486.4,87,492,87c2.42,0,5-1,6-3.15h2.12c-1.14,2.94-4.81,4.61-8.33,4.61-6.64,0-8.69-4.27-7.83-9.12s4.43-9.13,11.05-9.13c3.58,0,6.75,1.31,6.49,4.47Z" transform="translate(0 0)"/><path class="cls-1" d="M515.3,80.47l-6.32-10h2.52L516.71,79l8.21-8.47H527l-9.76,9.91-1.34,7.62h-2Z" transform="translate(0 0)"/><path d="M69.83,15.5l-8.5,40.08C60.17,61.09,57.46,67.6,49,72c-5.35,2.85-12.56,5.14-23.92,5.14-6.28,0-16.6-.74-21.89-5.41A9.11,9.11,0,0,1,0,63.7c.06-.85.18-2.25,2.9-2.25H16.62c2.72,0,3,.68,3.19,1.74.39,2.51,2.93,4.14,7.84,4.14C38,67.33,40,61.09,41,56.14l1.29-6.06c-7.1,7-16.24,7.43-19.44,7.43-11.68,0-23.3-6-19.74-22.83C5.79,22.21,15.93,11.84,32.79,11.84c10.7,0,14.67,4.13,16.65,7.8l1-4.76s.16-2.21,3-2.21H67.69C70.7,12.67,69.83,15.5,69.83,15.5Zm-31.8,6c-7,0-11.82,5.32-13.46,13-1,4.86-1.4,12.84,7.76,12.84,9.92,0,12.31-9.72,13-13C45.84,31.93,48.06,21.47,38,21.47Z" transform="translate(0 0)"/><path d="M92.53,39.45c-.52,2.47-2.37,11.19,8.21,11.19,4.61,0,8.11-1.67,10-4.74.37-.6.85-2,3.43-2h14.18c2,0,2.06,1.42,1.73,2.09-4.87,10-18,14-31.42,14-19.29,0-27.94-8.07-24.72-23.3,3.27-15.4,14.43-25.4,34.82-25.4,15.44,0,21.49,5.23,23.86,11.74,1.41,3.5,1.36,7.37.13,13.83a3.26,3.26,0,0,1-3.09,2.59ZM114.81,29c.28-3.11,0-8.52-8-8.52s-10.71,5.71-11.74,8.6c-.14.41-.74,1,.78,1h17C114.87,30.09,114.78,29.4,114.81,29Z" transform="translate(0 0)"/><path d="M275.32,39.45c-.52,2.47-2.37,11.19,8.22,11.19,4.6,0,8.1-1.67,10-4.74.37-.6.85-2,3.43-2h14.9c1.53,0,1.34,1.42,1,2.09-4.87,10-18,14-31.42,14-19.29,0-27.94-8.07-24.72-23.3,3.27-15.4,14.43-25.4,34.82-25.4C307,11.29,313,16.52,315.4,23c1.41,3.5,1.36,7.37.13,13.83a3.25,3.25,0,0,1-3.09,2.59ZM297.6,29c.27-3.11,0-8.52-8-8.52s-10.71,5.71-11.73,8.6c-.15.41-.75,1,.77,1h17C297.66,30.09,297.57,29.4,297.6,29Z" transform="translate(0 0)"/><path d="M144.9,22.76s.81-5.06,1.17-7.52a2.58,2.58,0,0,1,2.71-2.3h16.08a1.7,1.7,0,0,1,1.9,2.19L165.88,20c3.28-3.49,8.66-8.08,20.12-8.08,20.29,0,17.57,12.84,16.23,19.17,0,0-5,23.38-5.35,25.24s-.72,2.64-2.8,2.64H177.89c-2.94,0-1.79-2.43-1.79-2.43l5.09-24c.68-3.21,2.06-9.72-6.43-9.72-9.26,0-11,8.07-11.32,9.72L158.28,56.9s0,2.08-3,2.08H139c-2.11,0-1.33-2.3-1.33-2.3Z" transform="translate(0 0)"/><path d="M255.94,15.36l-1.47,6.94s-.53,1.83-2.18,1.83H240.74l-3.38,16c-1.1,5.68-1.64,8.25,6.3,8.25a16.78,16.78,0,0,0,2.88-.06c1.29-.17,2.2.78,1.92,1.83s-.92,4.7-1.42,6.68a2.87,2.87,0,0,1-2.72,2.38,101.69,101.69,0,0,1-11.35.54c-16.53,0-18.87-4.58-17-13.48l4.69-22.1H212c-2,0-1.3-2.55-1.3-2.55l1.42-6.69a2.41,2.41,0,0,1,2.58-1.76h8.6l1-4.93c.3-1.41.51-2.17,2.3-2.79S244.06,0,244.06,0s2.11-.55,1.47,2.51-2.24,10.58-2.24,10.58h10.88A1.69,1.69,0,0,1,255.94,15.36Z" transform="translate(0 0)"/><path d="M362.44,26.76c0-3.2-1.6-5.56-6-5.56-7.61,0-10.73,6.42-12.45,14.49-2.52,11.92.87,14.67,6.05,14.67,5.72,0,7.91-3.86,8.93-7.18.23-.77-.08-2.18,2.93-2.18h16.63c2.19,0,1.56,1.57,1.31,2.33-3.51,10.3-15.7,16.75-31.31,16.75-17.64,0-29.44-7.79-25.92-24.39,3.84-18.16,20.47-24.31,36-24.31,5.95,0,15.81.83,21,6.61a11.81,11.81,0,0,1,3.27,8.83c0,.84.28,2.26-2.15,2.26h-16.4C362.25,29.08,362.43,27.5,362.44,26.76Z" transform="translate(0 0)"/><path d="M417.09,30.44l-1.83,8.66a1.49,1.49,0,0,1-1.45,1.17H388a.84.84,0,0,1-.87-1.26l1.82-8.56s.2-1.09,2-1.09h25.29A.89.89,0,0,1,417.09,30.44Z" transform="translate(0 0)"/><path d="M502.37,11.43c-1.34,0-2.54.12-3.22.12s-1.09.61.08.85c12.11,2.5,19.38,9.91,16.62,22.87a29.64,29.64,0,0,1-11.91,18.25,32.75,32.75,0,0,1-13.44,5.59c-1.23.23-1.38.93.29,1,.76,0,1.55,0,2.36,0,11.36,0,18.79-2.85,24.22-6.61a29.66,29.66,0,0,0,11.92-18.25C532.75,19,520.34,11.43,502.37,11.43Z" transform="translate(0 0)"/><path d="M451.44,50.56a15.56,15.56,0,0,1-2,.12c-10.57,0-8.73-8.71-8.21-11.19h7.92A1.77,1.77,0,0,0,451,38.24c.1-.82.24-1.63.4-2.41a28.62,28.62,0,0,1,1.34-4.45c.16-.42.29-1.24-1.06-1.24h-8.16c.69-2.21,3-9.63,12.07-9.63a16.44,16.44,0,0,1,2.85.28,1.93,1.93,0,0,0,2.12-.47,33.12,33.12,0,0,1,9.84-5.76c1.09-.42.95-1.18.35-1.39a40.87,40.87,0,0,0-13.21-1.83c-20.4,0-31.56,10-34.82,25.4C419.44,52,428.09,60,447.38,60a56.53,56.53,0,0,0,14.19-1.69c.57-.14.61-.78-.06-1.15a24.75,24.75,0,0,1-5.93-3.85,15.07,15.07,0,0,1-1.89-2.16C453.47,50.88,453.22,50.14,451.44,50.56Z" transform="translate(0 0)"/><path class="cls-2" d="M472.09,46.83c1.69,3.48,5.4,3.67,7.27,3.67,9,0,12.53-8.16,13.9-14.58,1.69-8,.79-14.68-7.48-14.68-9.15,0-12.57,7.8-14,14.68C471.12,38.94,470.5,43.44,472.09,46.83Z" transform="translate(0 0)"/></svg>